<svg id="그룹_2460" data-name="그룹 2460" xmlns="http://www.w3.org/2000/svg" xmlns:xlink="http://www.w3.org/1999/xlink" width="128" height="128" viewBox="0 0 128 128">
  <defs>
    <clipPath id="clip-path">
      <rect id="사각형_3958" data-name="사각형 3958" width="128" height="128" fill="none"/>
    </clipPath>
  </defs>
  <g id="그룹_2459" data-name="그룹 2459" transform="translate(0 0)" clip-path="url(#clip-path)">
    <path id="패스_3538" data-name="패스 3538" d="M69.173,64,31.683,26.51,50.427,7.764a26.509,26.509,0,0,1,37.49,0h0a26.512,26.512,0,0,1,0,37.492Z" transform="translate(32.318 -0.001)"/>
    <path id="패스_3539" data-name="패스 3539" d="M7.765,87.918h0a26.509,26.509,0,0,1,0-37.49L26.511,31.682,64,69.172,45.255,87.918a26.509,26.509,0,0,1-37.49,0" transform="translate(0 32.317)"/>
    <path id="패스_3540" data-name="패스 3540" d="M50.428,87.918,31.682,69.174l37.49-37.492L87.918,50.428a26.509,26.509,0,0,1-37.49,37.49" transform="translate(32.317 32.317)" fill="#ff5933"/>
    <path id="패스_3541" data-name="패스 3541" d="M26.509,64,7.763,45.256A26.51,26.51,0,0,1,45.253,7.764L64,26.512Z" transform="translate(0 -0.001)" fill="#ff5933"/>
    <path id="패스_3542" data-name="패스 3542" d="M39.948,5.492A5.493,5.493,0,1,1,34.455,0a5.492,5.492,0,0,1,5.493,5.492" transform="translate(29.543 0)"/>
    <path id="패스_3543" data-name="패스 3543" d="M39.948,63.419a5.493,5.493,0,1,1-5.493-5.493,5.492,5.492,0,0,1,5.493,5.493" transform="translate(29.543 59.088)"/>
    <path id="패스_3544" data-name="패스 3544" d="M5.492,28.963A5.493,5.493,0,1,1,0,34.455a5.492,5.492,0,0,1,5.492-5.492" transform="translate(0 29.544)" fill="#ff5933"/>
    <path id="패스_3545" data-name="패스 3545" d="M63.419,28.963a5.493,5.493,0,1,1-5.493,5.492,5.492,5.492,0,0,1,5.493-5.492" transform="translate(59.088 29.544)" fill="#ff5933"/>
  </g>
</svg>
