<svg xmlns="http://www.w3.org/2000/svg" xmlns:xlink="http://www.w3.org/1999/xlink" width="59" height="52.511" viewBox="0 0 59 52.511">
  <defs>
    <clipPath id="clip-path">
      <rect id="사각형_4003" data-name="사각형 4003" width="59" height="52.511" fill="none"/>
    </clipPath>
  </defs>
  <g id="그룹_2598" data-name="그룹 2598" transform="translate(0 0)">
    <g id="그룹_2497" data-name="그룹 2497" transform="translate(0 0)" clip-path="url(#clip-path)">
      <path id="패스_3570" data-name="패스 3570" d="M52.992,43.07H6.008A6.008,6.008,0,0,1,0,37.062V6.008A6.008,6.008,0,0,1,6.008,0H52.992A6.009,6.009,0,0,1,59,6.008V37.062a6.009,6.009,0,0,1-6.008,6.008" transform="translate(0 0)" fill="#ff5933"/>
      <path id="패스_3571" data-name="패스 3571" d="M34.06,49.748A14.16,14.16,0,0,0,19.9,63.908H48.219a14.16,14.16,0,0,0-14.16-14.16" transform="translate(-4.559 -11.398)"/>
      <path id="패스_3572" data-name="패스 3572" d="M17.6,14.156A3.442,3.442,0,1,0,14.156,17.6,3.442,3.442,0,0,0,17.6,14.156Z" transform="translate(-2.455 -2.455)" fill="none" stroke="#fff" stroke-width="3"/>
    </g>
  </g>
</svg>
