<svg xmlns="http://www.w3.org/2000/svg" xmlns:xlink="http://www.w3.org/1999/xlink" width="59" height="53.392" viewBox="0 0 59 53.392">
  <defs>
    <clipPath id="clip-path">
      <rect id="사각형_4045" data-name="사각형 4045" width="59" height="53.392" fill="none"/>
    </clipPath>
  </defs>
  <g id="그룹_2601" data-name="그룹 2601" transform="translate(0 0)">
    <g id="그룹_2547" data-name="그룹 2547" transform="translate(0 0)" clip-path="url(#clip-path)">
      <path id="패스_3611" data-name="패스 3611" d="M26.888,20.664,6.7,32.045A10.771,10.771,0,0,0,1.73,38.132L.074,43.284a1.489,1.489,0,0,0,1.96,1.843l24.854-9.708" transform="translate(0 -6.327)"/>
      <path id="패스_3612" data-name="패스 3612" d="M46.285,20.664,66.478,32.045a10.771,10.771,0,0,1,4.965,6.087L73.1,43.284a1.489,1.489,0,0,1-1.96,1.843L46.285,35.418" transform="translate(-14.173 -6.327)"/>
      <path id="패스_3613" data-name="패스 3613" d="M44.981,46.172l-2.288-.946V5.424a5.424,5.424,0,1,0-10.848,0v39.8l-2.288.946a6.775,6.775,0,0,0-4.187,6.261.958.958,0,0,0,1.108.946l10.791-1.706L48.06,53.38a.958.958,0,0,0,1.108-.946,6.775,6.775,0,0,0-4.187-6.261" transform="translate(-7.768 0)" fill="#ff5933"/>
      <path id="패스_3614" data-name="패스 3614" d="M43.584,6.982a1.906,1.906,0,1,0-1.907,1.907,1.907,1.907,0,0,0,1.907-1.907" transform="translate(-12.178 -1.554)" fill="#fff"/>
    </g>
  </g>
</svg>
