<svg xmlns="http://www.w3.org/2000/svg" xmlns:xlink="http://www.w3.org/1999/xlink" width="59" height="54.778" viewBox="0 0 59 54.778">
  <defs>
    <clipPath id="clip-path">
      <rect id="사각형_4052" data-name="사각형 4052" width="59" height="54.778" fill="none"/>
    </clipPath>
  </defs>
  <g id="그룹_2602" data-name="그룹 2602" transform="translate(0 0)">
    <rect id="사각형_4046" data-name="사각형 4046" width="4.258" height="37.787" transform="translate(33.583 7.362)" fill="#ff5933"/>
    <rect id="사각형_4047" data-name="사각형 4047" width="4.258" height="34.594" transform="translate(27.451 9.09)" fill="#ff5933"/>
    <rect id="사각형_4048" data-name="사각형 4048" width="4.258" height="30.868" transform="translate(21.321 10.953)" fill="#ff5933"/>
    <rect id="사각형_4049" data-name="사각형 4049" width="4.258" height="26.61" transform="translate(15.189 12.951)" fill="#ff5933"/>
    <rect id="사각형_4050" data-name="사각형 4050" width="4.258" height="26.61" transform="translate(9.058 15.211)" fill="#ff5933"/>
    <g id="그룹_2550" data-name="그룹 2550" transform="translate(0 0)">
      <g id="그룹_2549" data-name="그룹 2549" clip-path="url(#clip-path)">
        <path id="패스_3615" data-name="패스 3615" d="M2.6,40.634a2.614,2.614,0,0,0-2.588,2.91,26.588,26.588,0,0,0,52.856,0,2.613,2.613,0,0,0-2.587-2.91Z" transform="translate(0 -12.442)"/>
        <path id="패스_3616" data-name="패스 3616" d="M59.836,5.062,12.08,19.35A2.585,2.585,0,0,1,10.6,14.4L58.354.11a2.585,2.585,0,1,1,1.482,4.952" transform="translate(-2.68 0)"/>
        <rect id="사각형_4051" data-name="사각형 4051" width="3.344" height="3.344" transform="translate(5.743 34.567) rotate(-45)" fill="#fff"/>
      </g>
    </g>
  </g>
</svg>
