<svg id="그룹_2603" data-name="그룹 2603" xmlns="http://www.w3.org/2000/svg" xmlns:xlink="http://www.w3.org/1999/xlink" width="59" height="58.302" viewBox="0 0 59 58.302">
  <defs>
    <clipPath id="clip-path">
      <rect id="사각형_4057" data-name="사각형 4057" width="59" height="58.302" fill="none"/>
    </clipPath>
    <clipPath id="clip-path-3">
      <rect id="사각형_4054" data-name="사각형 4054" width="50.672" height="38.771" fill="none"/>
    </clipPath>
  </defs>
  <g id="그룹_2559" data-name="그룹 2559" clip-path="url(#clip-path)">
    <g id="그룹_2558" data-name="그룹 2558" transform="translate(0 0)">
      <g id="그룹_2557" data-name="그룹 2557" clip-path="url(#clip-path)">
        <path id="패스_3619" data-name="패스 3619" d="M13.99,12.318c-.1-.154-2.386-3.806-1.56-7.372a6.57,6.57,0,0,1,3.154-4.2C17.494-.417,20.794-.8,25.678,4.017a38.668,38.668,0,0,1,4.714,5.758L28.3,11.136C26.458,8.31,20.411.729,16.887,2.881A4.112,4.112,0,0,0,14.865,5.5c-.594,2.538,1.216,5.45,1.234,5.479Z" transform="translate(-2.051 0)"/>
        <path id="패스_3620" data-name="패스 3620" d="M53.228,12.318l-2.108-1.34,1.053.67-1.055-.668c.018-.03,1.827-2.942,1.233-5.479a4.108,4.108,0,0,0-2.021-2.62C46.8.724,40.757,8.309,38.919,11.136L36.826,9.775a38.7,38.7,0,0,1,4.713-5.758C46.425-.8,49.725-.417,51.633.749a6.57,6.57,0,0,1,3.154,4.2c.827,3.567-1.462,7.218-1.559,7.372" transform="translate(-6.166 0)"/>
        <g id="그룹_2556" data-name="그룹 2556" transform="translate(4.164 18.892)" opacity="0.7">
          <g id="그룹_2555" data-name="그룹 2555">
            <g id="그룹_2554" data-name="그룹 2554" clip-path="url(#clip-path-3)">
              <path id="패스_3621" data-name="패스 3621" d="M50.892,61.462H9.783A4.781,4.781,0,0,1,5,56.681V27.473a4.781,4.781,0,0,1,4.781-4.781h41.11a4.781,4.781,0,0,1,4.781,4.781V56.681a4.782,4.782,0,0,1-4.781,4.781" transform="translate(-5.002 -22.692)"/>
            </g>
          </g>
        </g>
        <path id="패스_3622" data-name="패스 3622" d="M54.219,31.293H4.781A4.781,4.781,0,0,1,0,26.512V16.41a4.781,4.781,0,0,1,4.781-4.781H54.219A4.782,4.782,0,0,1,59,16.41v10.1a4.782,4.782,0,0,1-4.781,4.781" transform="translate(0 -1.947)" fill="#ff5933"/>
        <rect id="사각형_4055" data-name="사각형 4055" width="4.37" height="49.259" transform="translate(27.314 9.043)"/>
      </g>
    </g>
  </g>
</svg>
